<?xml version="1.0" encoding="UTF-8" standalone="no"?><!DOCTYPE svg PUBLIC "-//W3C//DTD SVG 1.1//EN" "http://www.w3.org/Graphics/SVG/1.1/DTD/svg11.dtd"><svg width="100%" height="100%" viewBox="0 0 2134 2134" version="1.1" xmlns="http://www.w3.org/2000/svg" xmlns:xlink="http://www.w3.org/1999/xlink" xml:space="preserve" xmlns:serif="http://www.serif.com/" style="fill-rule:evenodd;clip-rule:evenodd;stroke-linejoin:round;stroke-miterlimit:2;"><g><rect id="bounds" x="-0" y="0" width="2133.33" height="2133.33" style="fill:#ef4444;fill-opacity:0;"/><g id="pokeball"><circle id="pokeball_inner" cx="1066.67" cy="1066.67" r="266.667" style="fill:url(#_Linear1);"/><path id="pokeball_outer" d="M2125.07,1200c-65.697,525.879 -514.84,933.333 -1058.4,933.333c-543.559,0 -992.702,-407.454 -1058.4,-933.333l541.896,-0c59.268,229.922 268.18,400 516.502,400c248.322,0 457.233,-170.078 516.502,-400l541.896,-0Zm-2116.8,-266.667c65.696,-525.878 514.839,-933.333 1058.4,-933.333c543.558,0 992.701,407.455 1058.4,933.333l-541.896,0c-59.269,-229.922 -268.18,-400 -516.502,-400c-248.322,0 -457.234,170.078 -516.502,400l-541.896,0Z" style="fill:url(#_Linear2);"/></g></g><defs><linearGradient id="_Linear1" x1="0" y1="0" x2="1" y2="0" gradientUnits="userSpaceOnUse" gradientTransform="matrix(1.30629e-13,2133.33,-2133.33,1.30629e-13,1066.67,-4.54747e-13)"><stop offset="0" style="stop-color:#f87171;stop-opacity:1"/><stop offset="1" style="stop-color:#ef4444;stop-opacity:1"/></linearGradient><linearGradient id="_Linear2" x1="0" y1="0" x2="1" y2="0" gradientUnits="userSpaceOnUse" gradientTransform="matrix(1.30629e-13,2133.33,-2133.33,1.30629e-13,1066.67,0)"><stop offset="0" style="stop-color:#f87171;stop-opacity:1"/><stop offset="1" style="stop-color:#ef4444;stop-opacity:1"/></linearGradient></defs></svg>